<svg version="1" xmlns="http://www.w3.org/2000/svg" width="1333.333" height="1333.333" viewBox="0 0 1000.000000 1000.000000"><path d="M472.7 34.6c-.1.2-4.1.6-8.7.9-9.8.7-14.1 1.1-22.5 2-3.3.4-7.1.9-8.5 1-1.4.2-2.5.4-2.5.5 0 .1-1.6.3-3.5.5-4.5.4-11.1 1.4-13 2-.8.2-3.1.7-5 1-1.9.3-6 1.1-9 1.7-3 .6-6.2 1.2-7 1.3-.8.1-2.2.5-3 .8-1.8.6-6.5 1.7-10.2 2.4-1.4.2-7.3 1.7-13 3.4-5.6 1.7-11.4 3.2-12.7 3.5-1.3.3-3.2.9-4.3 1.5-1 .5-1.8.7-1.8.3 0-.3-.6-.1-1.3.5-.8.6-2.2 1.2-3.3 1.4-1 .2-2.6.7-3.4 1-.8.3-3.5 1.2-6 2-6.9 2.3-13.2 4.7-16 6.2-1.4.7-2.8 1.4-3.2 1.4-3.8.6-28.6 11.9-44.8 20.4-8.5 4.4-16.5 8.5-17.7 9.1-1.3.6-2.3 1.4-2.3 1.8 0 .5-.5.8-1 .8-1.3 0-27.3 16.2-32.2 20.1-2 1.6-4.1 2.9-4.7 2.9-.5 0-1.4.6-1.8 1.3-.4.8-2.3 2.2-4 3.2-1.8 1.1-3.3 2.3-3.3 2.7 0 .4-.5.8-1.1.8-.6 0-1.6.6-2.4 1.2-.7.7-2.6 2.3-4.1 3.5-33.3 25.8-61.2 53.3-86.4 84.8-10.5 13.2-13.8 17.6-22.7 31-2.5 3.8-4.9 7.2-5.2 7.5-.3.3-1.1 1.4-1.7 2.5-2.9 5.2-3.9 7-4.5 7.5-.4.3-3.2 5-6.3 10.5-3.1 5.5-6.1 10.7-6.7 11.5-2.7 4.2-22.3 45-24.5 51.3-.7 2-2 5.2-2.8 7-1.6 3.5-5.1 12.9-5.1 13.7 0 .3-.3.9-.6 1.5-.6.9-4.8 13.5-5.4 16-.1.5-.5 1.7-.8 2.5-1.8 4.6-9.8 34.8-11.3 43-.3 1.4-.7 3.2-.9 4-.3.8-.7 3.2-1.1 5.4-.3 2.1-.8 4.8-1 6-.3 1.1-.7 3.4-.9 5-.2 1.5-.7 3.5-.9 4.5-.5 1.5-1.1 6.2-2.2 16.1-.3 2.5-.7 5.6-.9 7-.3 2.4-1 9.6-2 20.6-.3 2.7-.7 12.2-1 21.1-.5 17.2-.6 17.1 3.8 16.4.4-.1 69.7-.1 154-.1 203.1.1 477.4.1 678.5 0h163.3l-.6-16.3c-.6-16.1-.9-21.2-2.1-33.7-.7-7.3-.9-9.5-1.9-16-.4-2.5-.8-6.1-1-8-.2-1.9-.7-4.9-1-6.5-.4-1.7-.8-3.9-1-5-1.3-8.4-5-26.3-7.9-38-.2-.6-.6-2.4-1-4-.4-1.7-1-3.7-1.3-4.5-.3-.8-.7-2.2-.9-3-.5-2.5-3.4-12.1-6.1-19.9-1.4-4-2.6-7.8-2.8-8.5-.1-.6-.7-2.4-1.3-3.9-.7-1.6-1.2-3.4-1.2-4 0-.7-.7-2.5-1.6-4.2-.8-1.6-3.5-8.1-6-14.3-2.4-6.3-5-12.6-5.8-14.1-.7-1.4-5-10.3-9.6-19.6-4.6-9.4-8.8-17.3-9.4-17.7-.6-.4-.7-.8-.2-.8.5 0 .2-.8-.6-1.8-1.3-1.5-10.8-17.4-13.3-22.3-.5-1-1.3-1.9-1.7-1.9-.5 0-.8-.5-.8-1 0-.6-.5-1.6-1-2.3-1-1.1-10.3-15-12.5-18.5-.5-.9-2-2.7-3.2-4.1-1.3-1.4-2.3-2.9-2.3-3.2 0-.4-3.9-5.6-8.7-11.6-29.3-36.5-59.1-65.6-93.8-91.4-6.6-4.9-12.4-9.3-13-9.7-1.8-1.4-20.9-13.8-28.5-18.4C739.4 94.4 696.9 73 692.8 73c-.9 0-2.1-.7-2.8-1.5-.6-.8-1.5-1.4-1.8-1.3-.4.1-1.6-.2-2.7-.6-1.1-.5-5.4-2.1-9.5-3.7-10.6-4-22.2-8.1-24-8.4-.8-.1-2.2-.5-3-.8-1.3-.5-18.8-5.5-21.5-6.2-.5-.1-1.7-.4-2.5-.7-1.2-.5-14.8-3.7-18.5-4.4-13.3-2.5-24.4-4.6-26.4-4.9-1.4-.2-4.6-.7-7.1-1-2.5-.4-5.6-.9-7-1.1-1.4-.3-5.2-.7-8.5-1-6.4-.5-12-1.2-12-1.4 0-.8-72-2.1-72.8-1.4zM9.4 564.7c-5.9 1.1-9 10-5.2 14.8 2.9 3.7 6 4.6 14.8 4.5 4.1-.1 9.3 0 11.5 0 2.2.1 4.7.2 5.5.2.8-.1 6.9-.1 13.5-.1H63c.8-.1 3.8-.1 6.5 0h10c2.8-.1 8.2-.1 12 0 3.9.1 7.7.1 8.5.1 8.8-.3 25.3-.1 26 .3.5.3 1.1.1 1.5-.5.4-.6 1.1-.8 1.6-.4.6.3 4 .5 7.7.4 3.7-.1 7.4-.1 8.2-.1h24c8.2 0 6.9 0 17.5.1 5 0 12.2.1 16 .1h49c3.9.1 7.7.1 8.5.1.8-.1 6.9-.1 13.5-.1 12 .1 17.4 0 19.8-.2.6-.1 6.2-.1 12.2-.1 6.1.1 12.4.1 14 .1h98c6.1 0 11.7 0 12.5-.1.8 0 5.3 0 10 .1h20c4.7.1 9.2.1 10 0h24c.8-.1 9.6 0 19.5 0h32c6.1 0 11.7 0 12.5-.1.8 0 5.3 0 10 .1h20c4.7.1 11.7.2 15.5.2 3.9.1 7.7.1 8.5.1 8.8-.3 25.3-.1 26 .3.5.3 1.1.1 1.5-.5.4-.6 1.1-.8 1.6-.4.6.3 4 .5 7.7.4 3.7-.1 7.4-.1 8.2-.1h24c8.1 0 6.8 0 17.5.1 12.5.1 29.7.2 31.5.1h10.5c5 .1 10.6.1 12.5 0h10.5c3.9.1 7.7.1 8.5.1.8-.1 6.9-.1 13.5-.1 12 .1 17.4 0 19.8-.2.6-.1 6.2-.1 12.2-.1 6.1.1 12.4.1 14 .1h98c6.1 0 11.7 0 12.5-.1.8 0 5.3 0 10 .1h20.5c16.6.1 19.3-.3 22.1-3 3.9-3.9 4-9.2.4-13.2l-2.8-3.2-490.4-.1c-269.7-.1-491.3.1-492.4.3zM624.3 596l-352.3.5-2.7 2.7c-3.1 3.1-3.6 8-1.3 12.3 1.3 2.5 6 4.4 11.1 4.6 2.5 0 20.2.1 22.9 0h17c8.5.1 16.2.1 17 0 .8-.1 4.4-.1 8 0h26.5c6.6.1 13.1.1 14.5.1 1.4 0 7.2-.1 13-.1h11.8c1.4-.1 5.5-.1 8 0h24c1.4-.1 5.5-.1 8 0h24c1.4-.1 5.5-.1 8 0h24c1.6-.1 5.9-.1 7.5 0H532c.8.1 3.8.1 6.5 0 2.8 0 5.9-.1 7 0h24.3c1.4-.1 5.5-.1 8 0h24c1.4-.1 5.5-.1 8 0H645c5.2.1 10.2.1 11 0 .8 0 4.4-.1 8 0h10.5c2.2 0 9.3 0 15.8-.1 6.6 0 12.3.2 12.7.5.5.3 1.1.1 1.5-.5.4-.6 1-.8 1.4-.6.7.5 10.6.7 15.1.5 2-.1 31.8 0 39.5.1 3.3.1 7.8.1 10 .1 20.5-.1 27.8 0 28.5.4.5.3 1.1.1 1.5-.5.4-.6 1-.8 1.4-.6.7.5 10.6.7 15.1.5 2-.1 31.8 0 39.5.1 3.3.1 7.8.1 10 .1h16c6.6.1 13.1.1 14.5.1 1.4 0 7.2-.1 13-.1h11.8c1.6-.1 5.9-.1 7.5 0H948c.8.1 3.8.1 6.5 0 2.8 0 5.7-.1 6.5 0 .8 0 6 0 11.5-.1 8.3-.2 10.5-.6 13.2-2.3 3.2-2.2 4.7-6.1 3.7-9.4-1.8-5.8-3.7-7.2-10.9-8.5-1.1-.1-160.5-.1-354.2.2zM64.5 596.9c-7.8 3.2-7.9 15.6-.1 18 2.4.8 18.5 1.5 25.4 1.2 1.3-.1 5.3-.1 8 0H133c5.2.1 10.2.1 11 0 .8 0 4.4-.1 8 0h10.5c2.2 0 9.3 0 15.8-.1 6.4 0 12 .1 12.5.1.4.1.9.1 1.2 0 .3-.1 5.8-.2 12.2-.4 11.3-.2 11.9-.3 14.5-2.9 4.7-4.8 3.1-13.6-3-15.8-3.6-1.2-148.1-1.3-151.2-.1zM45.3 628l-21.3.5-2.6 2.6c-4.7 4.8-3.7 12.6 1.9 15.2 2.7 1.3 11.8 1.6 61.7 1.7 32.2.1 59.2.1 60 .1h10c4.7.1 9.2.1 10 0h14c6.9.1 13.2 0 14 0h12.5c6.1.1 11.7.1 12.5 0h11.5c5.5.1 10.7.1 11.5 0h10c4.7.1 9.2.1 10 0h14c6.9.1 13.2 0 14 0h12.5c6.1.1 11.7.1 12.5 0h11.5c5.5.1 10.7.1 11.5 0h10c4.7.1 9.2.1 10 .1 5.1-.2 120.9-.3 121.6-.1.5.1 1.1.1 1.4 0 .3-.1 12.1-.3 26.4-.4l25.8-.2 2.8-3.3c5-6 2.2-14.4-5.2-15.7-4.1-.7-455.3-1.2-484.5-.5zM609.8 628l-45.6.5-2.6 2.4c-1.4 1.3-2.3 2.8-2 3.2.3.5 0 .9-.7.9-2.2 0 0 7.3 3.1 10.2l2.8 2.6 45.4.2c24.9.1 46 .1 46.8.1h10c4.7.1 9 .1 9.5.1.6 0 9.5-.1 19.9-.2 18.8-.2 18.8-.2 21.8-2.9 4.6-4.1 4.4-11.9-.5-15.1-2.9-1.9-44-2.7-107.9-2zM747.8 628.2c-5.7 1-10 5.7-9.4 10.6.6 5.8 5.4 9.2 13.1 9.3 1.1.1 5.8.1 10.5 0h25c6.9.1 13.2 0 14 0h12.5c6.1.1 11.9 0 13 0 2.9-.3 3.1-.3 14.5-.2h24c5.8.1 23.3 0 38.9-.1l28.3-.3 2.7-3.3c3.1-3.6 3.4-5.2 2-9.9-2-6.5 1.9-6.3-96.2-6.5-48.7-.2-90.5 0-92.9.4zM130.3 660l-82.3.5-2.5 2.6c-3.3 3.3-4 7.1-1.9 11.4 2.3 4.9 6 5.7 28.7 5.5 10.6-.1 21.2-.1 23.7 0s5 .2 5.5.2c.6 0 6.9-.1 14-.1H156c2.5 0 5 0 5.5-.1.6-.1 1.4-.2 1.8-.1.4.1 20.5.1 44.5 0 24 0 45.7 0 48.2.1s5.2.2 6 .2c.8-.1 14.6-.1 30.5 0 16 0 29.7 0 30.5-.1h25c2.5.1 5 0 5.5-.1.6-.1 1.4-.2 1.8-.1.4.1 13.3.1 28.5.1 15.2-.1 29.7 0 32.2.1 2.5 0 5.2.1 6 .1.8-.1 12.5-.1 26-.1 13.5-.1 25.9-.5 27.5-1 1.7-.5 2.6-1 2.1-1-.4-.1.2-.9 1.4-1.9 3.2-2.6 3.4-8.2.4-12.4-1.4-1.8-2.8-3.2-3.2-3.1-.4.1-1.6 0-2.7-.3-3-.7-248.2-1-343.2-.4zM617.3 660l-93.3.5-2.7 2.7c-5 5-3 13.7 3.6 16 2 .7 4 1.1 4.5 1 .5-.2 5-.3 10-.2 5 .1 9.8.1 10.6.1h21.5c11 .1 20.5.1 21 .1 2-.1 19-.1 20.5-.1h53.5c3.3 0 6.5-.1 7-.2.6-.1 1.4-.1 1.8 0 .4.1 20.5.1 44.5 0 24 0 45.7 0 48.2.1s5.2.2 6 .2c.8-.1 14.6-.1 30.5 0 16 0 29.7 0 30.5-.1h25c2.5.1 5 0 5.5-.1.6-.1 1.4-.2 1.8-.1.4.1 13 .1 28 .1 15-.1 28.1-.1 29.2-.1 15.3.1 23.8 0 32.7-.2 10.1-.2 10.9-.4 13.4-2.8 5.6-5.7 2.9-15-4.8-16.4-4.5-.8-234.8-1.1-348.5-.5zM166.8 692c-13.8.5-14.8.6-17.2 2.9-3.4 3.2-3.9 5.2-2.6 9.9 1.7 6.6 3.9 7.2 30.1 7.1h37.4c6.6.1 19.7.1 29 .2h18c.6.1 9.8 0 20.5-.1 10.7 0 39.8-.1 64.5-.1h60c13 .1 45.4.2 47 .2H526c5.8 0 11 .1 11.5 0H581c.8 0 7 0 13.7-.1 10.8-.2 12.6-.5 15-2.4 1.5-1.1 3-2.8 3.1-3.6 1-4.2 1-5.2.1-7.9-2.3-6.4 7.4-6.1-155-6.1H246.6c-35.1 0-64.1-.1-64.5-.3-.3-.1-7.2 0-15.3.3zM687.8 692.3c-6 1.2-9 4.3-9.2 9.6-.1 4.3 2.2 7.7 6.2 9.2 1.8.7 15 1.1 28.2.8h13.5c6.6.1 19.7.1 29 .2h18c.6.1 9.8 0 20.5 0 10.7-.1 39.9-.2 64.8-.2 24.8 0 45.8 0 46.5-.1.6 0 5.3.1 10.2.1 5 .1 18.5.1 30 .1 19.9-.1 21.2-.3 24.2-2.3 1.8-1.2 3.3-2.9 3.4-3.7 0-.8.2-2.3.4-3.3.6-3.4-1.6-7.5-4.9-9.1-3.6-1.7 3.7-1.6-210-1.6-35.6 0-65.1-.2-65.5-.3-.3-.2-2.7.1-5.3.6zM86.8 724l-30.8.5-2.7 2.7c-3.1 3.1-3.6 8-1.3 12.3 1.6 3 7 4.7 15 4.7 3-.1 26.2-.1 51.5-.1H214c25.6 0 48.5 0 51-.1 2.5 0 17.7-.2 33.7-.3l29.3-.2 2.6-2.6c5.6-5.7 2.9-15-4.8-16.4-4.2-.8-198.3-1.2-239-.5zM419.3 724c-14.9.5-15.3.6-18 3.2-3.8 3.8-3.8 9.8 0 13.6l2.7 2.7 18.8.2c10.3.1 22.1.3 26.2.3 5.4.1 118.4.2 133 .1h144c25.6 0 48.5 0 51-.1 2.5 0 15.9-.2 29.7-.3l25.3-.2 2.7-2.7c5.4-5.5 2.4-15-5.1-16.3-3.9-.7-389.7-1.2-410.3-.5zM118.8 756l-26.8.5-2.7 2.8c-3.8 3.7-3.7 9.7.1 13.6l2.6 2.6 38.3.2c21 .1 42 .3 46.7.3 9.1.1 52.5.2 55 .1h89c12.9 0 24 .1 24.5 0 .6 0 11 0 23.2-.1 20.9-.1 22.4-.3 25-2.3 1.5-1.1 2.9-2.2 3.1-2.3.1-.1.4-2.2.6-4.7.3-3.6-.1-5-2-7-1.3-1.5-3.9-2.9-5.6-3.2-4.2-.7-235.7-1.2-271-.5zM524.8 756l-36.8.5-2.6 2.6c-3.9 3.9-4 9.2-.4 13.2l2.8 3.2 24.4.2c13.4.1 27.9.3 32.3.3 9.5.1 55.4.2 57.5.1h174c16.8.1 31.4 0 32.5 0 1.1 0 29.3-.2 62.7-.3l60.8-.3 2.7-2.7c5-5 3.1-13.6-3.6-15.7-2.7-.9-50.9-1.2-186.6-1.4-100.7-.1-199.5 0-219.7.3zM198.7 788.1c-10 .5-10.9.7-13.5 3.2-4.8 4.8-2.9 13.3 3.6 15.8 1.2.5 11.1.9 22 .9 10.8 0 24.7 0 30.7.1 6.1.1 11.7.1 12.5.1 1.9-.1 222.1 0 223.5 0 .6 0 3.3-.1 6-.2 2.8-.1 18.7-.1 35.5-.1h32c1.1-.1 166.5-.1 192-.1.8 0 15.2.1 32 .1 40.3.1 40.5.1 43.7-3.1 3.6-3.7 3.9-9.9.5-13.3-1.3-1.3-3.8-2.7-5.6-3-4-.8-600.7-1.2-614.9-.4zM157.8 820l-37.8.5-2.7 2.7c-1.9 1.9-2.7 3.8-2.7 6.2 0 8.5 4.6 10.9 19.9 10.7 5-.1 37.9-.3 73.2-.4l64.3-.2 2.7-2.7c4.8-4.9 3-13.7-3.2-15.8-1.8-.6-6.6-1-10.6-1-4.1.1-8.3.1-9.4.1H235c-8 0-15.6 0-17-.1-10.1-.4-27.6-.4-60.2 0zM352.2 820l-16.4.5-2.9 3.3c-2.5 2.8-2.9 3.9-2.4 7 1 6.1 5.2 9.2 13 9.4 1.1 0 20.2-.1 42.5-.1 22.3-.1 81.2-.2 131-.2 49.8.1 107.6.1 128.5.1h128c49.5 0 92.8-.2 96.2-.3 5.3-.2 6.7-.6 9-2.9 4.8-4.8 3.1-13.4-3-15.6-2.2-.8-12.9-1.1-32.7-1.1h-40c-3.6.1-7.2.1-8 0h-64c-28.6.1-158.9.1-160 0h-97c-10.1-.5-108.8-.5-121.8-.1zM222.2 852l-14.4.5-2.9 3.3c-3.7 4.1-3.5 9.1.5 13.1l2.6 2.6h204.2l2.9-3.5c2.2-2.6 2.8-4.2 2.5-6.8-.4-4.1-4-8-8-8.7-4-.8-168.3-1.2-187.4-.5zM496.2 852.1c-7.1.5-8.8 1-10.9 3.1-3.8 3.8-3.9 9.1-.3 13.1l2.8 3.2 171.6.2 171.6.2 3.2-2.8c5.7-5.1 3.8-14.2-3.4-16.2-4.3-1.1-319.8-1.9-334.6-.8zM331.6 883.7c-.1.1-8 .3-17.5.3l-17.2.2-3.2 2.8c-5.3 4.7-3.8 13.5 2.6 15.8 2.6.9 42.5 1.6 81.2 1.3H394c8 .1 15 .1 15.5.1.6-.1 50.1-.1 110-.1h111c9.7-.1 14.7-3.1 14.9-9 .1-5.2-2-8.8-5.9-10.1-2.1-.7-52.4-1.1-155.4-1.3-83.8-.1-152.4-.1-152.5 0zM286.6 915.8c-.2.1-3.4.4-7.2.5-5.5.3-7.5.8-9.6 2.6-3.3 2.9-4.2 6.3-2.8 10.6 2.3 6.9-4.6 6.6 118.5 6.3l110.7-.3 3-3.5c2.4-2.9 2.8-4.1 2.3-6.9-.9-4.8-2.5-7-6.1-8.1-1.8-.6-11.7-1-23-1-11 .1-21.5.1-23.4 0-1.9-.1-4.2-.2-5-.2-.8.1-10.3.1-21 .1s-21.5 0-24 .1-5.1.2-5.7.1c-.7 0-1.9-.1-2.5-.2-2.2-.1-19 0-23.8.2-2.5.1-5.2.1-6 .1-1.4-.1-35.4-.1-37.5-.1-1.2.1-7.2 0-26.8-.4-5.4-.1-10-.1-10.1.1zM597.3 916c-17.2.5-17.3.5-20 3.2-5 5-3 13.9 3.6 15.9 2.4.7 34.2.9 95.3.7l91.8-.3 2.5-2.6c5-4.9 3.3-13.9-3-15.9-1.6-.5-5.5-1-8.5-1-8-.1-46.2-.2-48-.1-.8 0-3.3.1-5.5 0-2.2 0-4.7-.1-5.5 0h-57.7c-18.7 0-23.6.1-24.2.6-.2.2-1.1.1-2-.3-.9-.4-9.4-.5-18.8-.2zM368.7 948.1c-7.7.5-9.2.9-11.4 3.1-3.8 3.8-3.9 9.1-.3 13.1l2.8 3.2H660l2.5-2.5c3.8-3.8 4.1-9.1.9-12.9-1.4-1.7-3.9-3.3-5.7-3.6-4.3-.8-277.8-1.2-289-.4z"/></svg>