<?xml version="1.0" encoding="UTF-8" standalone="no"?><!DOCTYPE svg PUBLIC "-//W3C//DTD SVG 1.1//EN" "http://www.w3.org/Graphics/SVG/1.1/DTD/svg11.dtd"><svg width="100%" height="100%" viewBox="0 0 418 302" version="1.1" xmlns="http://www.w3.org/2000/svg" xmlns:xlink="http://www.w3.org/1999/xlink" xml:space="preserve" xmlns:serif="http://www.serif.com/" style="fill-rule:evenodd;clip-rule:evenodd;stroke-linecap:round;stroke-linejoin:round;stroke-miterlimit:1.5;"><g><path d="M344.855,136.415c0,-75.031 -60.824,-135.856 -135.855,-135.856c-75.031,0 -135.855,60.825 -135.855,135.856l135.855,0l135.855,0Z" style="fill:url(#_Linear1);"/><clipPath id="_clip2"><path d="M344.855,136.415c0,-75.031 -60.824,-135.856 -135.855,-135.856c-75.031,0 -135.855,60.825 -135.855,135.856l135.855,0l135.855,0Z"/></clipPath><g clip-path="url(#_clip2)"><circle cx="209" cy="128.263" r="51.625" style="fill:#1c1e26;"/></g><g><path d="M2.5,212.494l413,0" style="fill:none;stroke:#1c1e26;stroke-width:5px;"/><path d="M148.137,221.188l239.105,0" style="fill:none;stroke:#1c1e26;stroke-width:5px;"/><path d="M26.411,229.883l190.197,0" style="fill:none;stroke:#1c1e26;stroke-width:5px;"/><path d="M74.232,255.967l86.947,0" style="fill:none;stroke:#1c1e26;stroke-width:5px;"/><path d="M99.229,264.662l79.339,0" style="fill:none;stroke:#1c1e26;stroke-width:5px;"/><path d="M184.003,255.967l124.986,0" style="fill:none;stroke:#1c1e26;stroke-width:5px;"/><path d="M95.968,247.272l141.29,0" style="fill:none;stroke:#1c1e26;stroke-width:5px;"/><path d="M260.082,247.272l74.992,0" style="fill:none;stroke:#1c1e26;stroke-width:5px;"/><path d="M206.826,264.662l124.987,0" style="fill:none;stroke:#1c1e26;stroke-width:5px;"/><path d="M70.971,238.578l130.421,0" style="fill:none;stroke:#1c1e26;stroke-width:5px;"/><path d="M216.608,238.578l135.855,0" style="fill:none;stroke:#1c1e26;stroke-width:5px;"/><path d="M276.384,229.883l76.079,0" style="fill:none;stroke:#1c1e26;stroke-width:5px;"/><path d="M227.476,229.883l39.127,0" style="fill:none;stroke:#1c1e26;stroke-width:5px;"/><path d="M114.445,273.357l190.197,0" style="fill:none;stroke:#1c1e26;stroke-width:5px;"/><path d="M165.526,282.051l152.158,0" style="fill:none;stroke:#1c1e26;stroke-width:5px;"/><path d="M206.826,290.746l91.295,0" style="fill:none;stroke:#1c1e26;stroke-width:5px;"/><path d="M130.747,290.746l53.256,0" style="fill:none;stroke:#1c1e26;stroke-width:5px;"/><path d="M169.874,299.441l76.079,0" style="fill:none;stroke:#1c1e26;stroke-width:5px;"/><path d="M102.489,282.051l43.474,0" style="fill:none;stroke:#1c1e26;stroke-width:5px;"/><path d="M32.932,221.188l97.815,0" style="fill:none;stroke:#1c1e26;stroke-width:5px;"/></g><path d="M59.861,198.15l0,-20.205c0,-0.494 -0.353,-0.847 -0.848,-0.847l-15.118,0c-0.424,0 -0.848,0.353 -0.848,0.847l0,20.205c0,0.424 0.424,0.777 0.848,0.777c0.424,0 0.848,-0.353 0.848,-0.777l0,-19.427l13.493,0l0,19.427c0,0.424 0.353,0.777 0.777,0.777c0.495,0 0.848,-0.353 0.848,-0.777Zm-16.814,-50.511l0,20.204c0,0.424 0.424,0.848 0.848,0.848l15.118,0c0.495,0 0.848,-0.424 0.848,-0.848l0,-20.204c0,-0.424 -0.353,-0.777 -0.848,-0.777c-0.424,0 -0.777,0.353 -0.777,0.777l0,19.356l-13.493,0l0,-19.356c0,-0.424 -0.424,-0.777 -0.848,-0.777c-0.424,0 -0.848,0.353 -0.848,0.777Zm25.291,0l0,50.511c0,0.424 0.353,0.777 0.777,0.777c0.495,0 0.848,-0.353 0.848,-0.777l0,-50.511c0,-0.424 -0.353,-0.777 -0.848,-0.777c-0.424,0 -0.777,0.353 -0.777,0.777Zm-33.697,50.511l0,-50.511c0,-0.424 -0.354,-0.777 -0.848,-0.777c-0.424,0 -0.777,0.353 -0.777,0.777l0,50.511c0,0.424 0.353,0.777 0.777,0.777c0.494,0 0.848,-0.353 0.848,-0.777Z" style="fill:#1c1e26;fill-rule:nonzero;stroke:#1c1e26;stroke-width:3px;stroke-linecap:butt;stroke-miterlimit:1.41421;"/><path d="M138.347,164.664c-3.603,-11.232 -14.341,-18.862 -26.138,-18.862c-15.966,0 -26.987,11.445 -26.987,26.986c0,15.613 11.021,27.057 26.987,27.057c11.797,0 22.535,-7.559 26.138,-18.932c0.141,-0.424 -0.141,-0.919 -0.565,-1.06c-0.495,-0.141 -0.918,0.07 -1.06,0.565c-3.391,10.667 -13.352,17.732 -24.513,17.732c-14.977,0 -25.362,-10.668 -25.362,-25.362c0,-14.694 10.385,-25.29 25.362,-25.29c11.161,0 21.122,7.064 24.513,17.661c0.142,0.494 0.565,0.706 1.06,0.565c0.424,-0.071 0.706,-0.636 0.565,-1.06Zm-40.267,16.39c2.896,5.086 8.265,8.336 14.129,8.336c9.113,0 16.318,-7.559 16.318,-16.602c0,-8.972 -7.205,-16.531 -16.318,-16.531c-5.864,0 -11.233,3.18 -14.129,8.266c-0.212,0.424 -0.071,0.918 0.282,1.201c0.424,0.212 0.989,0.071 1.201,-0.353c2.543,-4.592 7.347,-7.489 12.646,-7.489c8.194,0 14.623,6.782 14.623,14.906c0,8.125 -6.429,14.906 -14.623,14.906c-5.299,0 -10.103,-2.896 -12.646,-7.488c-0.212,-0.353 -0.777,-0.494 -1.201,-0.283c-0.353,0.212 -0.494,0.778 -0.282,1.131Z" style="fill:#1c1e26;fill-rule:nonzero;stroke:#1c1e26;stroke-width:3px;stroke-linecap:butt;stroke-miterlimit:1.41421;"/><path d="M173.316,168.62c3.321,0 6.005,-2.472 6.005,-5.793c0,-3.39 -2.684,-5.863 -6.005,-5.863l-8.901,0c-1.06,0 -1.06,1.625 0,1.625l8.901,0c2.402,0 4.38,1.766 4.38,4.238c0,2.402 -1.978,4.239 -4.38,4.239l-2.826,0c-0.494,0 -0.847,0.353 -0.847,0.777c0,0.424 0.353,0.777 0.847,0.777l2.826,0Zm4.875,29.035l-13.14,-17.52c-0.283,-0.353 -0.777,-0.423 -1.13,-0.212c-0.212,0.212 -0.354,0.495 -0.283,0.707l0,17.52c0,0.424 0.353,0.848 0.777,0.848c0.424,0 0.848,-0.424 0.848,-0.848l0,-15.118l11.585,15.542c0.283,0.424 0.848,0.494 1.201,0.212c0.354,-0.283 0.424,-0.777 0.142,-1.131Zm-23.03,0.495l0,-49.663l19.003,0c7.912,0 14.129,6.499 14.129,14.34c0,7.771 -6.217,14.271 -14.129,14.271c-0.424,0 -0.777,0.353 -0.777,0.847c0,0.212 0.071,0.424 0.212,0.566l15.542,20.063c0.353,0.424 0.847,0.494 1.201,0.141c0.353,-0.212 0.424,-0.706 0.141,-1.06l-14.624,-18.932c8.054,-0.848 14.129,-7.842 14.129,-15.896c0,-8.759 -6.993,-16.036 -15.824,-16.036l-19.851,0c-0.424,0 -0.777,0.424 -0.777,0.848l0,50.511c0,0.424 0.353,0.848 0.777,0.848c0.494,0 0.848,-0.424 0.848,-0.848Z" style="fill:#1c1e26;fill-rule:nonzero;stroke:#1c1e26;stroke-width:3px;stroke-linecap:butt;stroke-miterlimit:1.41421;"/><path d="M214.785,198.15l0,-50.511c0,-0.424 -0.354,-0.777 -0.777,-0.777c-0.495,0 -0.848,0.353 -0.848,0.777l0,50.511c0,0.424 0.353,0.777 0.848,0.777c0.423,0 0.777,-0.353 0.777,-0.777Zm-10.102,0l0,-50.511c0,-0.424 -0.354,-0.777 -0.778,-0.777c-0.494,0 -0.847,0.353 -0.847,0.777l0,50.511c0,0.424 0.353,0.777 0.847,0.777c0.424,0 0.778,-0.353 0.778,-0.777Z" style="fill:#1c1e26;fill-rule:nonzero;stroke:#1c1e26;stroke-width:3px;stroke-linecap:butt;stroke-miterlimit:1.41421;"/><path d="M263.247,197.231l-33.415,0l15.966,-39.137c0.282,-0.706 -0.142,-1.201 -0.707,-1.201l-14.835,0c-0.424,0 -0.777,0.354 -0.777,0.777c0,0.566 0.353,0.919 0.777,0.919l13.564,0l-15.966,39.208c-0.283,0.635 0.212,1.13 0.918,1.13l34.475,0c0.495,0 0.848,-0.353 0.848,-0.777c0,-0.495 -0.353,-0.919 -0.848,-0.919Zm-32.991,-48.815l28.611,0l-15.966,39.278c-0.282,0.636 0.142,1.131 0.777,1.131l19.569,0c0.495,0 0.848,-0.354 0.848,-0.848c0,-0.424 -0.353,-0.777 -0.848,-0.777l-18.368,0l15.966,-39.208c0.212,-0.636 -0.141,-1.201 -0.848,-1.201l-29.741,0c-0.424,0 -0.777,0.424 -0.777,0.848c0,0.424 0.353,0.777 0.777,0.777Z" style="fill:#1c1e26;fill-rule:nonzero;stroke:#1c1e26;stroke-width:3px;stroke-linecap:butt;stroke-miterlimit:1.41421;"/><path d="M329.159,164.664c-3.603,-11.232 -14.341,-18.862 -26.139,-18.862c-15.966,0 -26.986,11.445 -26.986,26.986c0,15.613 11.02,27.057 26.986,27.057c11.798,0 22.536,-7.559 26.139,-18.932c0.141,-0.424 -0.142,-0.919 -0.566,-1.06c-0.494,-0.141 -0.918,0.07 -1.059,0.565c-3.391,10.667 -13.352,17.732 -24.514,17.732c-14.977,0 -25.361,-10.668 -25.361,-25.362c0,-14.694 10.384,-25.29 25.361,-25.29c11.162,0 21.123,7.064 24.514,17.661c0.141,0.494 0.565,0.706 1.059,0.565c0.424,-0.071 0.707,-0.636 0.566,-1.06Zm-40.268,16.39c2.896,5.086 8.265,8.336 14.129,8.336c9.113,0 16.319,-7.559 16.319,-16.602c0,-8.972 -7.206,-16.531 -16.319,-16.531c-5.864,0 -11.233,3.18 -14.129,8.266c-0.212,0.424 -0.071,0.918 0.283,1.201c0.423,0.212 0.989,0.071 1.201,-0.353c2.543,-4.592 7.347,-7.489 12.645,-7.489c8.195,0 14.623,6.782 14.623,14.906c0,8.125 -6.428,14.906 -14.623,14.906c-5.298,0 -10.102,-2.896 -12.645,-7.488c-0.212,-0.353 -0.778,-0.494 -1.201,-0.283c-0.354,0.212 -0.495,0.778 -0.283,1.131Z" style="fill:#1c1e26;fill-rule:nonzero;stroke:#1c1e26;stroke-width:3px;stroke-linecap:butt;stroke-miterlimit:1.41421;"/><path d="M387.158,198.15l0,-50.441c0,-1.13 -1.696,-1.13 -1.696,0l0,50.441c0,1.059 1.696,1.059 1.696,0Zm-41.186,0l0,-50.441c0,-1.13 -1.625,-1.13 -1.625,0l0,50.441c0,1.059 1.625,1.059 1.625,0Zm7.7,-50.017l21.9,31.437c0.424,0.707 1.554,0.283 1.554,-0.494l0,-31.367c0,-1.13 -1.695,-1.13 -1.695,0l0,28.753l-20.487,-29.247c-0.565,-0.918 -1.908,0.071 -1.272,0.918Zm24.231,49.522l-21.899,-31.437c-0.566,-0.635 -1.555,-0.282 -1.555,0.495l0,31.437c0,1.059 1.696,1.059 1.696,0l0,-28.823l20.346,29.317c0.706,0.848 1.978,-0.07 1.412,-0.989Z" style="fill:#1c1e26;fill-rule:nonzero;stroke:#1c1e26;stroke-width:3px;stroke-linecap:butt;stroke-miterlimit:1.41421;"/></g><defs><linearGradient id="_Linear1" x1="0" y1="0" x2="1" y2="0" gradientUnits="userSpaceOnUse" gradientTransform="matrix(8.31874e-15,135.855,-135.855,8.31874e-15,209,0.559313)"><stop offset="0" style="stop-color:#e45893;stop-opacity:1"/><stop offset="0.34" style="stop-color:#ea5b79;stop-opacity:1"/><stop offset="0.68" style="stop-color:#f28f81;stop-opacity:1"/><stop offset="1" style="stop-color:#fac19a;stop-opacity:1"/></linearGradient></defs></svg>