<?xml version="1.0" encoding="UTF-8" standalone="no"?><!DOCTYPE svg PUBLIC "-//W3C//DTD SVG 1.1//EN" "http://www.w3.org/Graphics/SVG/1.1/DTD/svg11.dtd"><svg width="100%" height="100%" viewBox="0 0 398 372" version="1.1" xmlns="http://www.w3.org/2000/svg" xmlns:xlink="http://www.w3.org/1999/xlink" xml:space="preserve" xmlns:serif="http://www.serif.com/" style="fill-rule:evenodd;clip-rule:evenodd;stroke-linecap:round;stroke-linejoin:round;stroke-miterlimit:1.5;"><g><path d="M398,199.124c0,-109.904 -89.095,-199 -199,-199c-109.905,0 -199,89.096 -199,199l199,0l199,0Z" style="fill:#fff;"/><clipPath id="_clip1"><path d="M398,199.124c0,-109.904 -89.095,-199 -199,-199c-109.905,0 -199,89.096 -199,199l199,0l199,0Z"/></clipPath><g clip-path="url(#_clip1)"><circle cx="199" cy="187.184" r="75.62" style="fill:#1c1e26;"/></g><g><path d="M4.776,215.044l388.448,0" style="fill:none;stroke:#fff;stroke-width:7.96px;"/><path d="M109.848,227.78l280.192,0" style="fill:none;stroke:#fff;stroke-width:7.96px;"/><path d="M11.144,240.516l199,0" style="fill:none;stroke:#fff;stroke-width:7.96px;"/><path d="M23.88,278.724l105.072,0" style="fill:none;stroke:#fff;stroke-width:7.96px;"/><path d="M38.208,291.46l116.216,0" style="fill:none;stroke:#fff;stroke-width:7.96px;"/><path d="M162.384,278.724l167.16,0" style="fill:none;stroke:#fff;stroke-width:7.96px;"/><path d="M62.088,265.988l178.304,0" style="fill:none;stroke:#fff;stroke-width:7.96px;"/><path d="M273.824,265.988l109.848,0" style="fill:none;stroke:#fff;stroke-width:7.96px;"/><path d="M195.816,291.46l173.528,0" style="fill:none;stroke:#fff;stroke-width:7.96px;"/><path d="M20.696,253.252l167.16,0" style="fill:none;stroke:#fff;stroke-width:7.96px;"/><path d="M210.144,253.252l173.528,0" style="fill:none;stroke:#fff;stroke-width:7.96px;"/><path d="M297.704,240.516l71.64,0" style="fill:none;stroke:#fff;stroke-width:7.96px;"/><path d="M226.064,240.516l57.312,0" style="fill:none;stroke:#fff;stroke-width:7.96px;"/><path d="M76.416,304.196l246.76,0" style="fill:none;stroke:#fff;stroke-width:7.96px;"/><path d="M135.32,316.932l211.736,0" style="fill:none;stroke:#fff;stroke-width:7.96px;"/><path d="M195.816,329.668l133.728,0" style="fill:none;stroke:#fff;stroke-width:7.96px;"/><path d="M84.376,329.668l78.008,0" style="fill:none;stroke:#fff;stroke-width:7.96px;"/><path d="M119.4,342.404l133.728,0" style="fill:none;stroke:#fff;stroke-width:7.96px;"/><path d="M144.872,367.876l116.216,0" style="fill:none;stroke:#fff;stroke-width:7.96px;"/><path d="M109.848,355.14l85.968,0" style="fill:none;stroke:#fff;stroke-width:7.96px;"/><path d="M232.432,355.14l71.64,0" style="fill:none;stroke:#fff;stroke-width:7.96px;"/><path d="M49.352,316.932l57.312,0" style="fill:none;stroke:#fff;stroke-width:7.96px;"/><path d="M27.064,227.78l57.312,0" style="fill:none;stroke:#fff;stroke-width:7.96px;"/></g></g></svg>