<svg version="1" xmlns="http://www.w3.org/2000/svg" width="1333.333" height="1333.333" viewBox="0 0 1000.000000 1000.000000"><path d="M474.5 133.1c-113.3 7.4-217.1 62.1-287.6 151.4-43.6 55.3-72.5 124.1-81.4 194-1.7 13.8-3.9 50.4-3 51.3.7.8 794.3.8 795 0 .9-.9-1.3-37.5-3-51.3-13.5-105.9-70.8-203.6-157-267.5-22.9-17-50-33.1-73.5-43.5-60.7-27-125-38.7-189.5-34.4zM107.2 554.7c-.7.3-1.9 1.8-2.8 3.5-1.9 3.7-1.1 8.2 1.9 10.3 1.9 1.3 47.1 1.5 393.5 1.5 248.6 0 392-.4 393.1-1 1-.5 2.4-2.3 3.1-4 1.5-3.5 0-8.4-3.1-10-1.8-1-783.2-1.3-785.7-.3zM152.5 580.2c-3.1 1.8-4.4 4-4.4 7.3 0 3.4 1.4 5.6 4.6 7.3 3 1.6 118.1 1.7 121.6.1 4.9-2.2 6-8.3 2.3-12.6l-2.4-2.8-59.9-.2c-43.9-.2-60.3 0-61.8.9zM318 580.3c-5.4 2.7-6.1 9.9-1.2 13.7 2.5 2 4.3 2 285.9 1.8l283.5-.3 1.9-2.4c1.9-2.3 2.5-6.5 1.3-9.6-1.9-4.7 13.3-4.5-287.6-4.5-224.8 0-281.8.3-283.8 1.3zM118.5 607.5c-1.6 1.5-2.5 3.6-2.5 5.5s.9 4 2.5 5.5l2.4 2.5h202.5c187.1 0 202.6-.1 204.1-1.7 3.9-3.8 4-7.9.2-12.1l-2-2.2H120.9l-2.4 2.5zM548.5 607.5c-1.6 1.5-2.5 3.6-2.5 5.5s.9 4 2.5 5.5l2.4 2.5h121.2l2.4-2.5c1.6-1.5 2.5-3.6 2.5-5.5s-.9-4-2.5-5.5l-2.4-2.5H550.9l-2.4 2.5zM691.9 606.9c-1.8 1.4-2.4 2.9-2.4 6.1 0 3.2.6 4.7 2.4 6.1 2.2 1.8 5.2 1.9 77.3 1.9h74.9l2.4-2.5c1.6-1.5 2.5-3.6 2.5-5.5s-.9-4-2.5-5.5l-2.4-2.5h-74.9c-72.1 0-75.1.1-77.3 1.9zM137.9 632.9c-1.7 1.8-2.9 4-2.9 5.6 0 1.6 1.2 3.8 2.9 5.6l2.9 2.9h339.4l2.9-2.9c3.8-3.8 3.8-7.4 0-11.2l-2.9-2.9H140.8l-2.9 2.9zM516.9 632.9c-1.7 1.8-2.9 4-2.9 5.6 0 1.6 1.2 3.8 2.9 5.6l3 2.9 176.5-.2 176.5-.3 2.3-2.2c3-3 3-8.6 0-11.6l-2.3-2.2-176.5-.3-176.5-.2-3 2.9zM220.5 658.5c-1.6 1.5-2.5 3.6-2.5 5.5s.9 4 2.5 5.5l2.4 2.5h363.2l2.4-2.5c1.6-1.5 2.5-3.6 2.5-5.5s-.9-4-2.5-5.5l-2.4-2.5H222.9l-2.4 2.5zM645.2 656.7c-2 .8-4.4 6.3-3.8 8.7.3 1.2 1.5 3.1 2.6 4.4l2.1 2.2h226.8l2.1-2.2c1.1-1.3 2.3-3.2 2.6-4.4.7-2.6-1.9-7.9-4.1-8.8-2-.7-226.4-.7-228.3.1zM144.6 683.1c-3.4 2.7-3.7 9.6-.5 12.5 2 1.8 5.5 1.9 108.8 2.2 58.6.1 107.6 0 108.8-.3 4.9-1.2 7.6-6.9 5.7-12-1.8-4.6.5-4.5-113.2-4.5-106.7 0-106.9 0-109.6 2.1zM421.6 683.1c-2.1 1.7-2.6 2.9-2.6 6.5 0 3.9.4 4.7 3.3 6.4 3.2 2 5.5 2 171.5 2 179.6 0 172.8.2 174.6-4.5 1.2-3.1.6-7.3-1.3-9.6l-1.9-2.4-170.5-.3-170.4-.2-2.7 2.1zM173.3 708.5c-4.2 3-3.4 12.1 1.2 13.9.9.3 55.2.6 120.6.6h119l2.4-2.5c3.3-3.2 3.3-7.8 0-11l-2.4-2.5H294.8c-104.5 0-119.6.2-121.5 1.5zM489.2 707.7c-1.5.6-4.2 5.6-4.2 7.7 0 .8 1.2 2.8 2.6 4.5l2.6 3.1h353.9l2.4-2.5c1.6-1.5 2.5-3.6 2.5-5.5s-.9-4-2.5-5.5l-2.4-2.5-176.8.1c-97.2 0-177.4.3-178.1.6zM249.6 734.1c-5 3.9-2.8 12.8 3.6 14.4 1.3.3 114 .4 250.5.3l248.2-.3 2.3-2.2c3.3-3.3 3-8.9-.6-11.9l-2.7-2.4H252.3l-2.7 2.1zM198.3 758.1c-3.8 1.1-6.8 5.8-5.7 9.2.3 1.2 1.6 3.2 2.7 4.4l2 2.3h121.4l2-2.3c4.8-5.2 3.2-11.8-3.5-13.6-4.7-1.4-114.3-1.3-118.9 0zM370.3 758.1c-3.2.9-6.3 5-6.3 8.3 0 .8 1.2 2.8 2.6 4.5l2.6 3.1h429.5l2.7-2.1c3.6-2.8 3.6-8.6 0-12l-2.6-2.4-212.6-.2c-130.3-.1-214 .2-215.9.8zM265.6 785.1c-1.9 1.5-2.6 3-2.6 5.5 0 4.8 1.4 7 5.1 8.3 4.9 1.7 158.5 1.5 161.9-.2 5.5-2.8 6.4-9.4 1.8-13.7-2.1-2-3.2-2-82.9-2-80.1 0-80.6 0-83.3 2.1zM488.7 785c-4.9 3.8-4.3 10.6 1.2 13.5 2.7 1.3 18 1.5 137.1 1.5 114.8 0 134.6-.2 137.5-1.4 3.4-1.5 3.5-1.7 3.5-7 0-9.5 14.1-8.6-140.6-8.6-134.3 0-136.2 0-138.7 2zM337.4 809.4c-3.5 1.5-4.4 3.2-4.4 8.1 0 2.4.7 3.9 2.6 5.4l2.7 2.1h272.4l2.7-2.1c1.9-1.5 2.6-3 2.6-5.5 0-4.8-1.4-7-5.1-8.3-2.3-.8-41.7-1.1-136.8-1.1-109.9.1-134.2.3-136.7 1.4zM316.7 836c-5.4 4.3-3.8 12 3.1 14 2.6.8 30 1 90.5.8l86.9-.3 2.4-2.8c2.6-3.1 3-5.7 1.2-9-2.5-4.8.8-4.6-92.9-4.7-86.9 0-88.7 0-91.2 2zM561.6 836.1c-2.8 2.2-3.6 7.3-1.6 10.9 2.1 3.8 5 4 78.5 4s76.4-.2 78.5-4c2-3.6 1.2-8.7-1.6-10.9-2.6-2.1-3.3-2.1-76.9-2.1-73.6 0-74.3 0-76.9 2.1zM388.4 860.4c-3.5 1.5-4.4 3.2-4.4 8.1 0 2.4.7 3.9 2.6 5.4 2.7 2.1 2.8 2.1 121.4 2.1 118.6 0 118.7 0 121.4-2.1 1.9-1.5 2.6-3 2.6-5.5 0-4.8-1.4-7-5.1-8.3-5.1-1.8-234.4-1.5-238.5.3z"/></svg>